<svg width="20" height="20" viewBox="0 0 20 20" fill="none" xmlns="http://www.w3.org/2000/svg">
<path d="M10 13.9583C9.83491 13.9562 9.67719 13.8896 9.56045 13.7729C9.4437 13.6561 9.37716 13.4984 9.375 13.3333V9.16666C9.375 9.0009 9.44085 8.84193 9.55806 8.72472C9.67527 8.6075 9.83424 8.54166 10 8.54166C10.1658 8.54166 10.3247 8.6075 10.4419 8.72472C10.5592 8.84193 10.625 9.0009 10.625 9.16666V13.3333C10.6228 13.4984 10.5563 13.6561 10.4396 13.7729C10.3228 13.8896 10.1651 13.9562 10 13.9583Z" fill="white"/>
<path d="M10 7.70832C9.83491 7.70616 9.67719 7.63962 9.56045 7.52288C9.4437 7.40613 9.37716 7.24841 9.375 7.08332V6.66666C9.375 6.5009 9.44085 6.34192 9.55806 6.22471C9.67527 6.1075 9.83424 6.04166 10 6.04166C10.1658 6.04166 10.3247 6.1075 10.4419 6.22471C10.5592 6.34192 10.625 6.5009 10.625 6.66666V7.08332C10.6228 7.24841 10.5563 7.40613 10.4396 7.52288C10.3228 7.63962 10.1651 7.70616 10 7.70832Z" fill="white"/>
<path d="M10 17.5C8.51664 17.5 7.0666 17.0601 5.83323 16.236C4.59986 15.4119 3.63856 14.2406 3.07091 12.8701C2.50325 11.4997 2.35472 9.99168 2.64411 8.53683C2.9335 7.08197 3.64781 5.7456 4.6967 4.6967C5.7456 3.64781 7.08197 2.9335 8.53683 2.64411C9.99168 2.35472 11.4997 2.50325 12.8701 3.07091C14.2406 3.63856 15.4119 4.59986 16.236 5.83323C17.0601 7.0666 17.5 8.51664 17.5 10C17.5 11.9891 16.7098 13.8968 15.3033 15.3033C13.8968 16.7098 11.9891 17.5 10 17.5ZM10 3.75C8.76387 3.75 7.5555 4.11656 6.52769 4.80332C5.49988 5.49008 4.6988 6.46619 4.22576 7.60823C3.75271 8.75027 3.62894 10.0069 3.8701 11.2193C4.11125 12.4317 4.70651 13.5453 5.58059 14.4194C6.45466 15.2935 7.56831 15.8888 8.78069 16.1299C9.99307 16.3711 11.2497 16.2473 12.3918 15.7743C13.5338 15.3012 14.5099 14.5001 15.1967 13.4723C15.8834 12.4445 16.25 11.2361 16.25 10C16.25 8.3424 15.5915 6.75269 14.4194 5.58059C13.2473 4.40848 11.6576 3.75 10 3.75Z" fill="white"/>
</svg>
